<svg id="visual" viewBox="0 0 900 600" width="900" height="600" xmlns="http://www.w3.org/2000/svg" xmlns:xlink="http://www.w3.org/1999/xlink" version="1.1"><rect x="0" y="0" width="900" height="600" fill="#29a9ff"></rect><g transform="translate(918.1002364948716 -44.55479627545387)"><path d="M152.6 -208.4C202.4 -173.9 250.5 -135.5 298 -76.3C345.6 -17.1 392.5 62.8 376.2 125.1C359.9 187.4 280.5 232 207.2 273.3C134 314.5 67 352.2 -17.9 376.9C-102.9 401.6 -205.7 413.2 -284 373.6C-362.3 334 -416.1 243.3 -415.7 156C-415.3 68.6 -360.8 -15.5 -322.4 -95.9C-284.1 -176.4 -262 -253.2 -210.9 -287.3C-159.9 -321.4 -79.9 -312.7 -14.3 -293.1C51.4 -273.5 102.9 -242.9 152.6 -208.4" fill="#2e8ece"></path></g></svg>